<svg xmlns="http://www.w3.org/2000/svg" viewBox="0 0 170 32" fill="none">
  <path d="M2 10.5a2 2 0 0 1 2-2h3.586a1 1 0 0 1 .707.293L9.707 10.207A1 1 0 0 0 10.414 10.5H16a2 2 0 0 1 2 2v1.5" stroke="#6B7280" stroke-width="1.5" stroke-linecap="round" stroke-linejoin="round"/>
  <path d="M2 12V20.5a2 2 0 0 0 2 2h5" stroke="#6B7280" stroke-width="1.5" stroke-linecap="round" stroke-linejoin="round"/>
  <path d="M18 16a2 2 0 0 1 2 2v3a2 2 0 0 1-2 2h-5a2 2 0 0 1-2-2v-3a2 2 0 0 1 2-2h5z" stroke="#6B7280" stroke-width="1.5" stroke-linecap="round" stroke-linejoin="round"/>
  <path d="M13.5 18.5a.5.5 0 1 0 0-1 .5.5 0 0 0 0 1z" fill="#6B7280"/>
  <path d="M6.5 16v-3M6.5 13l-1.5 1.5M6.5 13l1.5 1.5" stroke="#f97316" stroke-width="1.3" stroke-linecap="round" stroke-linejoin="round"/>
  <text x="42" y="22" fill="#18181b" font-family="JetBrains Mono, monospace" font-weight="700" font-size="18">fileshare</text>
</svg>
